#!OML:ASF F:\VICON\USERDATA\INSTALL\rory3\rory3.ASF
:FULLY-SPECIFIED
:DEGREES
128
root 0.0587269 18.1363 37.7861 4.01968 -5.95373 -0.0527803
lowerback 12.354 -3.0983 -0.647998
upperback 1.81469 -4.18786 0.0603783
thorax -4.95566 -2.05038 1.11132
lowerneck -6.45207 3.34553 -2.57873
upperneck -9.2434 4.48961 -1.27225
head -1.83298 2.33183 0.0419611
rclavicle 8.15017e-015 -1.07344e-014
rhumerus -60.4336 6.52703 -85.5921
rradius 93.9391
rwrist -10.935
rhand -35.2099 32.1747
rfingers 7.12502
rthumb -8.34736 2.35965
lclavicle 8.15017e-015 -1.07344e-014
lhumerus -26.669 -19.5499 88.7741
lradius 112.64
lwrist 21.7069
lhand -35.8316 5.4078
lfingers 7.12502
lthumb -8.94733 35.1981
rfemur -28.2538 4.90158 22.2135
rtibia 17.2098
rfoot 8.07874 -3.98604
rtoes -6.87644
lfemur 17.9077 0.470108 -28.5878
ltibia 54.2962
lfoot 31.0807 1.21336
ltoes -9.43884
129
root 0.0711594 18.0246 38.3013 3.41705 -6.59772 -0.445601
lowerback 12.9745 -2.78754 -0.382571
upperback 1.94656 -3.73212 0.238947
thorax -5.17285 -1.82714 1.10538
lowerneck -6.09798 3.3101 -2.6577
upperneck -9.14836 4.43453 -1.33163
head -1.86193 2.30841 0.031065
rclavicle -6.42571e-014 2.28602e-014
rhumerus -59.452 7.1145 -85.4971
rradius 94.3943
rwrist -11.3025
rhand -35.661 32.0964
rfingers 7.12502
rthumb -8.7827 2.29915
lclavicle -6.42571e-014 2.28602e-014
lhumerus -27.6869 -19.3409 89.1156
lradius 111.315
lwrist 21.3075
lhand -35.7865 5.6459
lfingers 7.12502
lthumb -8.90382 35.438
rfemur -26.9027 4.67416 23.0773
rtibia 18.1582
rfoot 8.97061 -0.0556433
rtoes 2.07838
lfemur 16.5546 2.09103 -27.4634
ltibia 59.8022
lfoot 30.0636 2.21547
ltoes -6.9943
130
root 0.087847 17.9185 38.8164 2.94872 -6.89585 -0.941502
lowerback 14.0974 -2.57724 0.247054
upperback 1.50006 -3.34654 0.431561
thorax -6.29703 -1.6371 0.959915
lowerneck -5.07569 3.33377 -2.72112
upperneck -8.70887 4.44504 -1.36506
head -1.89373 2.31569 0.017583
rclavicle 2.72583e-014 7.95139e-015
rhumerus -59.2801 7.61205 -85.4254
rradius 94.8991
rwrist -11.6247
rhand -35.3826 33.8823
rfingers 7.12502
rthumb -8.51399 4.07389
lclavicle 2.72583e-014 7.95139e-015
lhumerus -29.659 -19.2868 89.7344
lradius 110.186
lwrist 21.0008
lhand -35.5471 5.90401
lfingers 7.12502
lthumb -8.67273 35.7059
rfemur -25.7633 4.07782 24.0091
rtibia 19.7716
rfoot 7.49216 5.25421
rtoes 9.52733
lfemur 14.8575 3.68721 -25.799
ltibia 65.5507
lfoot 29.1375 2.72732
ltoes -6.55167
131
root 0.0982589 17.7959 39.3573 2.39001 -7.03969 -1.32457
lowerback 13.6329 -2.43089 0.806659
upperback 2.0412 -3.07319 0.481625
thorax -5.49636 -1.52133 0.607789
lowerneck -5.05639 3.35414 -2.39617
upperneck -8.37325 4.45611 -1.59094
head -1.77418 2.31218 -0.101696
rclavicle 1.47349e-014 -2.39536e-014
rhumerus -57.4428 7.91625 -85.5006
rradius 95.0795
rwrist -11.7328
rhand -35.4384 35.9263
rfingers 7.12502
rthumb -8.56786 6.12012
lclavicle 1.47349e-014 -2.39536e-014
lhumerus -30.1847 -19.2989 89.5915
lradius 109.017
lwrist 20.8234
lhand -35.6823 6.11785
lfingers 7.12502
lthumb -8.80323 35.9142
rfemur -24.7976 3.29806 24.8239
rtibia 22.8207
rfoot -0.172261 15.4022
rtoes -14.2341
lfemur 13.4788 5.30719 -23.9616
ltibia 71.0383
lfoot 28.0132 3.27477
ltoes -7.47775
132
root 0.0965482 17.6237 39.8222 2.25527 -7.59344 -1.6436
lowerback 14.0361 -1.95886 1.00904
upperback 1.78641 -2.39867 0.681638
thorax -5.98833 -1.19173 0.603055
lowerneck -4.02996 3.18736 -2.58966
upperneck -8.13856 4.21591 -1.55776
head -1.87798 2.19962 -0.0749218
rclavicle 6.80837e-015 -3.97569e-015
rhumerus -56.4936 8.12679 -85.33
rradius 95.6631
rwrist -12.0531
rhand -36.064 34.1056
rfingers 7.12502
rthumb -9.17159 4.32508
lclavicle 6.80837e-015 -3.97569e-015
lhumerus -31.691 -19.5529 90.1167
lradius 108.109
lwrist 20.6484
lhand -35.6111 6.33493
lfingers 7.12502
lthumb -8.73456 36.1342
rfemur -24.5694 4.64815 25.2527
rtibia 26.6413
rfoot -0.746146 9.28525
rtoes 18.9265
lfemur 11.1088 7.32519 -21.981
ltibia 76.8559
lfoot 26.86 3.89561
ltoes -6.68049
